<?xml version="1.0" encoding="UTF-8" standalone="no"?>
<!-- Created with Inkscape (http://www.inkscape.org/) -->

<svg
   width="87.359001"
   height="73.732002"
   viewBox="0 0 87.359004 73.732004"
   version="1.1"
   id="svg1"
   inkscape:version="1.4.2 (f4327f4, 2025-05-13)"
   sodipodi:docname="branches.svg"
   xmlns:inkscape="http://www.inkscape.org/namespaces/inkscape"
   xmlns:sodipodi="http://sodipodi.sourceforge.net/DTD/sodipodi-0.dtd"
   xmlns="http://www.w3.org/2000/svg"
   xmlns:svg="http://www.w3.org/2000/svg">
  <sodipodi:namedview
     id="namedview1"
     pagecolor="#ffffff"
     bordercolor="#666666"
     borderopacity="1.0"
     inkscape:showpageshadow="2"
     inkscape:pageopacity="0.0"
     inkscape:pagecheckerboard="0"
     inkscape:deskcolor="#d1d1d1"
     inkscape:document-units="px"
     inkscape:zoom="8.2243423"
     inkscape:cx="31.917446"
     inkscape:cy="35.86913"
     inkscape:window-width="1920"
     inkscape:window-height="1018"
     inkscape:window-x="-6"
     inkscape:window-y="-6"
     inkscape:window-maximized="1"
     inkscape:current-layer="layer1" />
  <defs
     id="defs1" />
  <g
     inkscape:label="Layer 1"
     inkscape:groupmode="layer"
     id="layer1"
     transform="translate(-18.520833,-126.73542)">
    <path
       style="fill:#4d352b;fill-opacity:1;stroke:#000000;stroke-width:0.999989px;stroke-linecap:butt;stroke-linejoin:miter;stroke-opacity:1"
       d="m 58.8931,160.57321 c 4.035429,-8.37976 6.14736,-10.77493 14.590772,-17.26557 6.359757,-3.64216 0.08772,-5.23294 -1.215899,-14.59061 5.430984,7.01153 1.852584,6.92978 7.781741,10.69976 0.698389,2.16983 3.099603,3.85219 11.186256,8.51122 -10.671645,0.0888 -10.592071,-8.45596 -16.536203,-1.45906 -8.267975,8.87589 -6.74422,10.05944 -7.295386,15.07695 15.4953,-0.0151 18.932141,5.48737 27.965641,8.99756 -11.470487,-2.05932 -25.946781,-6.08556 -28.452,-0.97272 -3.972099,3.26036 -3.982194,6.40136 -2.188612,10.94296 -0.652457,4.70144 9.61641,2.35072 8.99764,13.13155 -4.402314,-10.74322 -11.633974,-8.00175 -14.10441,-12.40203 -1.739482,-4.03323 -2.60982,-8.21132 -0.486358,-12.88838 -5.760784,2.36168 -1.499899,5.25762 -17.752103,4.86354 -15.382208,-5.51123 -15.400172,-5.80134 -17.995279,-8.26801 7.950114,3.43569 13.205717,5.07504 15.320304,4.62037 -4.265681,-6.84746 2.031661,-14.98156 9.240821,-21.64273 -8.368173,10.19104 -9.027562,18.72195 -4.377229,20.67004 0.382233,2.79915 5.073941,1.50381 15.320304,-8.02484 z"
       id="path25"
       sodipodi:nodetypes="ccccccccccccccccccc" />
    <path
       id="path26"
       style="fill:#364d2b;fill-opacity:0.68;fill-rule:evenodd;stroke:none;stroke-width:0.427328;stroke-dasharray:none;stroke-opacity:1"
       d="m 76.280347,126.73542 a 22.530433,15.356478 0 0 0 -22.531154,15.3572 22.530433,15.356478 0 0 0 0,0.0378 26.146146,20.188035 0 0 0 -9.08199,-1.25781 26.146146,20.188035 0 0 0 -26.14637,20.18721 26.146146,20.188035 0 0 0 26.14637,20.18914 26.146146,20.188035 0 0 0 6.708956,-0.67577 14.360231,18.615677 0 0 0 -0.03515,1.27928 14.360231,18.615677 0 0 0 14.361265,18.61495 14.360231,18.615677 0 0 0 14.15228,-15.46658 20.602614,19.143335 0 0 0 5.423806,0.67384 20.602614,19.143335 0 0 0 20.60147,-19.1423 20.602614,19.143335 0 0 0 -10.261673,-16.55835 22.530433,15.356478 0 0 0 3.193347,-7.88073 22.530433,15.356478 0 0 0 -22.53115,-15.3572 z" />
  </g>
</svg>
