<?xml version="1.0" encoding="UTF-8" standalone="no"?>
<!-- Created with Inkscape (http://www.inkscape.org/) -->

<svg
   width="32"
   height="16"
   viewBox="0 0 32 16.000001"
   version="1.1"
   id="svg1"
   xml:space="preserve"
   sodipodi:docname="mirror.svg"
   inkscape:version="1.4.2 (f4327f4, 2025-05-13)"
   xmlns:inkscape="http://www.inkscape.org/namespaces/inkscape"
   xmlns:sodipodi="http://sodipodi.sourceforge.net/DTD/sodipodi-0.dtd"
   xmlns:xlink="http://www.w3.org/1999/xlink"
   xmlns="http://www.w3.org/2000/svg"
   xmlns:svg="http://www.w3.org/2000/svg"><sodipodi:namedview
     id="namedview1"
     pagecolor="#ffffff"
     bordercolor="#666666"
     borderopacity="1.0"
     inkscape:showpageshadow="2"
     inkscape:pageopacity="0.0"
     inkscape:pagecheckerboard="0"
     inkscape:deskcolor="#d1d1d1"
     inkscape:document-units="px"
     inkscape:zoom="23.261953"
     inkscape:cx="12.488203"
     inkscape:cy="9.5004922"
     inkscape:window-width="1920"
     inkscape:window-height="1018"
     inkscape:window-x="-6"
     inkscape:window-y="-6"
     inkscape:window-maximized="1"
     inkscape:current-layer="layer2" /><defs
     id="defs1"><linearGradient
       id="linearGradient22"
       inkscape:collect="always"><stop
         style="stop-color:#808337;stop-opacity:1;"
         offset="0"
         id="stop22" /><stop
         style="stop-color:#d3d5a0;stop-opacity:1;"
         offset="0.40602967"
         id="stop23" /><stop
         style="stop-color:#808337;stop-opacity:1;"
         offset="1"
         id="stop24" /></linearGradient><linearGradient
       id="linearGradient16"
       inkscape:collect="always"><stop
         style="stop-color:#8acecc;stop-opacity:1;"
         offset="0"
         id="stop17" /><stop
         style="stop-color:#f2f2f2;stop-opacity:1;"
         offset="1"
         id="stop18" /></linearGradient><linearGradient
       inkscape:collect="always"
       xlink:href="#linearGradient16"
       id="linearGradient18"
       x1="8.4109411"
       y1="8.2108326"
       x2="5.6020246"
       y2="2.8802397"
       gradientUnits="userSpaceOnUse"
       gradientTransform="matrix(2.0073085,0,0,2.0074567,-0.04144557,-0.02443131)" /><linearGradient
       inkscape:collect="always"
       xlink:href="#linearGradient22"
       id="linearGradient23"
       x1="1.6327238"
       y1="0.34329736"
       x2="11.663611"
       y2="7.9307942"
       gradientUnits="userSpaceOnUse"
       gradientTransform="matrix(2.0073085,0,0,2.0074567,-0.04144557,-0.02443131)" /></defs><g
     inkscape:groupmode="layer"
     id="layer2"
     inkscape:label="Layer 2"><path
       style="fill:url(#linearGradient23);stroke:#726b39;stroke-width:0.200739;stroke-linecap:butt;stroke-linejoin:miter;stroke-dasharray:none;stroke-opacity:1"
       d="m 14.153503,0.47178135 c 0.999544,-0.27942213 2.063805,-0.56223675 3.365369,-0.0431489 1.922848,1.56147435 1.621909,0.2398223 2.228667,0.48907882 0.734595,0.30177163 1.246207,-0.31936808 1.58973,0.41704863 l 2.394591,0.021575 c 1.167528,-0.90886606 4.394013,-0.73971554 6.428713,-1.25131889 2.858921,-0.06758653 1.438097,0.63664098 0.992354,1.16502099 0.312396,1.3259767 -1.96335,2.565676 -3.192785,3.8402547 l -2.027851,3.7971056 c -0.654935,1.0557863 0.727062,1.5564737 -0.172578,1.9848497 0.207428,0.468982 -1.487527,1.059464 -1.466949,1.63966 l -1.078643,1.941702 c 0.129299,0.560696 0.02998,0.740323 0,1.035574 -0.08674,0.301594 -0.404916,0.371736 -0.776624,0.38834 -0.95634,-0.0037 -1.916865,-0.0011 -2.761328,-0.172595 l -1.380674,-0.04315 c -1.037116,0.121465 -1.881621,0.165879 -2.63189,0.172595 -0.804317,0.04089 -1.684377,-0.0129 -2.718182,-0.258893 l -1.164936,0.04315 C 10.710004,15.912492 9.8651572,15.90429 9.0191606,15.897523 8.706932,15.847418 8.3487972,15.873829 8.1993915,15.552332 8.0340256,15.055948 8.4875963,14.659287 8.2856828,14.214715 L 7.3796222,12.661353 C 6.5606646,12.630652 6.9564083,11.906467 5.5675012,11.107992 5.2397684,9.8504722 6.0295731,10.577635 5.5243554,8.9505457 L 3.7122341,5.15344 C 3.303474,4.8537497 2.8109239,5.1825328 2.5041533,4.1178657 1.5260278,3.3627724 0.64321923,2.5997354 0.34686615,1.7878237 -0.28496697,0.45117811 0.39321174,0.42464102 1.2960725,0.6228026 1.684173,0.23177498 3.1636147,0.61116285 4.4888574,0.88169618 5.2805201,1.3024912 6.785343,0.52169716 7.5953509,1.572079 l 2.5024531,0.021575 c 0.08109,-0.91611684 0.747574,0.094476 1.423809,-0.5825107 1.348582,0.8650742 1.523896,-0.37659091 2.63189,-0.53936195 z"
       id="path2"
       sodipodi:nodetypes="ccsccccccccccccccccccccccccccccccc" /><path
       style="fill:url(#linearGradient18);fill-opacity:1;stroke:#4f4815;stroke-width:0.401476;stroke-linecap:butt;stroke-linejoin:miter;stroke-dasharray:none;stroke-opacity:1"
       d="M 6.5167074,4.0747169 H 25.112523 L 21.143113,14.948247 H 10.529261 Z"
       id="path1" /></g></svg>
