<?xml version="1.0" encoding="UTF-8" standalone="no"?>
<!-- Created with Inkscape (http://www.inkscape.org/) -->

<svg
   width="32"
   height="35"
   viewBox="0 0 32 35.000001"
   version="1.1"
   id="svg1"
   xml:space="preserve"
   sodipodi:docname="mirror_smash.svg"
   inkscape:version="1.4.2 (f4327f4, 2025-05-13)"
   xmlns:inkscape="http://www.inkscape.org/namespaces/inkscape"
   xmlns:sodipodi="http://sodipodi.sourceforge.net/DTD/sodipodi-0.dtd"
   xmlns="http://www.w3.org/2000/svg"
   xmlns:svg="http://www.w3.org/2000/svg"><sodipodi:namedview
     id="namedview1"
     pagecolor="#ffffff"
     bordercolor="#666666"
     borderopacity="1.0"
     inkscape:showpageshadow="2"
     inkscape:pageopacity="0.0"
     inkscape:pagecheckerboard="0"
     inkscape:deskcolor="#d1d1d1"
     inkscape:document-units="px"
     inkscape:zoom="16.448685"
     inkscape:cx="7.3626876"
     inkscape:cy="13.627092"
     inkscape:window-width="1920"
     inkscape:window-height="1018"
     inkscape:window-x="-6"
     inkscape:window-y="-6"
     inkscape:window-maximized="1"
     inkscape:current-layer="layer2"
     inkscape:rotation="-1" /><defs
     id="defs1" /><g
     inkscape:groupmode="layer"
     id="layer2"
     inkscape:label="Layer 2"><path
       d="M 30.202805,0.15826452 C 28.168671,1.2729155 24.95458,0.90150752 23.780782,2.8816885 l -2.387183,-0.0468 C 21.058987,1.2304275 20.542116,2.5859795 19.812938,1.9284985 17.747523,2.8373851 18.496721,0.5226762 15.76872,0.49851405 13.573433,0.53012327 12.945127,4.0175245 11.60982,2.1327525 10.928342,3.6077305 10.274654,1.4048675 10.183989,3.4008485 L 7.6897022,3.3540385 C 6.8933566,1.0655305 5.3837256,2.7644455 4.5989247,1.8476435 1.219494,0.33679552 -0.28294445,0.30344952 0.46089599,3.8221265 1.1751516,6.3847004 2.4462407,8.6090115 2.8146547,11.15835 l 0.113314,8.272398 c 0.486282,3.545003 -0.5059046,1.958099 -0.19262,4.697907 0.7609376,2.15456 0.5303336,6.770264 0.5303336,6.770264 0.19655,0.968605 -3.25983479,1.833422 -3.10027853,2.914913 0.33369839,1.606285 5.92802653,0.404466 6.31765923,0.187236 l 6.390091,-0.09362 c 1.028096,0.535954 1.905543,0.650795 2.707906,0.561707 0.748111,-0.0146 1.589547,-0.109833 2.624881,-0.374472 l 7.805428,0.09362 c 0.328107,0.145927 5.205817,1.076656 5.416724,-0.468087 0.03305,-0.643274 -2.26619,-1.037982 -2.389091,-2.259591 -0.105456,-2.596025 0.365187,-5.21498 0.175501,-7.800059 0.901557,-0.93332 -0.685978,-2.023153 -0.02168,-4.323436 l 0.0067,-8.276658 c 1.239399,-2.7769755 2.27732,-5.4770625 1.98006,-8.3660195 0.817821,-1.5313018 1.18017,-2.52397286 -0.976778,-2.53618798 z"
       style="fill:#8b8e48;stroke:#726b39;stroke-width:0.295862;fill-opacity:1"
       id="path462"
       sodipodi:nodetypes="cccsccccccccccccccccccccccc" /><path
       style="fill:#52cbc5;fill-opacity:1;stroke:#4f4815;stroke-width:0.59172;stroke-linecap:butt;stroke-linejoin:miter;stroke-dasharray:none;stroke-opacity:1"
       d="M 6.5870999,6.6095735 H 25.127645 L 25.039585,30.300162 H 6.7851842 Z"
       id="path1"
       sodipodi:nodetypes="ccccc" /><path
       style="fill:#4d3717;fill-opacity:1;stroke:none;stroke-width:0.3;stroke-linecap:butt;stroke-linejoin:miter;stroke-dasharray:none;stroke-opacity:1"
       d="m 6.8781843,6.7785635 3.3531147,3.0092058 -1.9774778,1.8915007 1.5475914,4.212888 -3.0951829,2.063455 0.085977,5.244616 2.6652964,2.149432 -1.2896595,2.751274 3.2671374,0.171955 3.095183,1.805523 7.050139,0.08598 -0.687818,-2.235411 2.493342,0.601842 -1.891501,-3.868979 3.439092,-0.859773 -2.493342,-2.493342 2.321387,-0.429886 -1.547591,-4.126911 1.805523,-3.697024 L 24.847441,7.7243165 23.471804,9.0139756 22.612031,7.6383385 17.861785,6.5636225 14.530164,10.217658 12.036823,8.4121345 Z"
       id="path463"
       sodipodi:nodetypes="cccccccccccccccccccccccccc" /></g></svg>
